<svg width="197" height="189" viewBox="0 0 197 189" fill="none" xmlns="http://www.w3.org/2000/svg">
<path d="M88.8122 7.06236C91.8615 -2.35413 105.139 -2.35411 108.188 7.06237L124.457 57.3035C125.821 61.5147 129.732 64.3659 134.145 64.3659L186.794 64.3659C196.662 64.3659 200.765 77.0357 192.782 82.8554L150.188 113.906C146.617 116.509 145.123 121.122 146.487 125.333L162.757 175.575C165.806 184.991 155.065 192.821 147.081 187.002L104.487 155.951C100.917 153.348 96.0828 153.348 92.5126 155.951L49.9186 187.002C41.9355 192.821 31.1941 184.991 34.2434 175.575L50.5129 125.333C51.8766 121.122 50.3827 116.509 46.8125 113.906L4.2185 82.8554C-3.7647 77.0357 0.338121 64.3659 10.2059 64.3659L62.8549 64.3659C67.2679 64.3659 71.1791 61.5147 72.5427 57.3035L88.8122 7.06236Z" fill="#FFCB14"/>
</svg>
