<svg width="400" height="400" viewBox="0 0 400 400" fill="none" xmlns="http://www.w3.org/2000/svg">
<g clip-path="url(#clip0_185_8)">
<rect x="40" y="43" width="319" height="315" fill="white"/>
<path d="M50 0C22.3 0 0 22.3 0 50V350C0 377.7 22.3 400 50 400H350C377.7 400 400 377.7 400 350V50C400 22.3 377.7 0 350 0H50ZM164.717 104.167C175.217 104.167 181.467 109.167 183.467 119.167L207.85 257.55C215.6 247.3 221.95 238.667 226.95 231.667C234.7 220.667 241.833 208.033 248.333 193.783C255.083 179.533 258.467 166.783 258.467 155.533C258.467 148.783 256.583 143.417 252.833 139.417C249.333 135.167 242.7 129.8 232.95 123.3C242.95 110.55 255.45 104.167 270.45 104.167C278.45 104.167 285.083 106.55 290.333 111.3C295.833 116.05 298.567 123.033 298.567 132.3C298.567 147.8 292.067 167.183 279.067 190.433C266.317 213.433 241.717 248.05 205.217 294.3L168.1 296.9L139.583 136.433H102.083V120.667C112.083 117.417 123.833 113.9 137.333 110.167C150.833 106.167 159.967 104.167 164.717 104.167Z" fill="#21C998"/>
</g>
<defs>
<clipPath id="clip0_185_8">
<rect width="400" height="400" rx="200" fill="white"/>
</clipPath>
</defs>
</svg>
